<svg xmlns="http://www.w3.org/2000/svg" xmlns:xlink="http://www.w3.org/1999/xlink" width="64pt" height="64pt" version="1.1" viewBox="0 0 64 64"><defs><linearGradient id="linear0" x1="71.219" x2="71.219" y1="44.513" y2="65.462" gradientTransform="matrix(0.372093,0,0,0.372093,0,0)" gradientUnits="userSpaceOnUse"><stop offset="0" style="stop-color:#ff698f;stop-opacity:1"/><stop offset="1" style="stop-color:#3517a4;stop-opacity:1"/></linearGradient><linearGradient id="linear1" x1="32.25" x2="32.25" y1="15.622" y2="49.902" gradientTransform="matrix(0.372093,0,0,0.372093,0,0)" gradientUnits="userSpaceOnUse"><stop offset="0" style="stop-color:#ff698f;stop-opacity:1"/><stop offset="1" style="stop-color:#3517a4;stop-opacity:1"/></linearGradient><linearGradient id="linear2" x1="55.094" x2="55.094" y1="34.938" y2="150.57" gradientTransform="matrix(0.372093,0,0,0.372093,0,0)" gradientUnits="userSpaceOnUse"><stop offset="0" style="stop-color:#f80040;stop-opacity:1"/><stop offset="1" style="stop-color:#150941;stop-opacity:1"/></linearGradient><linearGradient id="linear3" x1="110.188" x2="110.188" y1="34.938" y2="150.57" gradientTransform="matrix(0.372093,0,0,0.372093,0,0)" gradientUnits="userSpaceOnUse"><stop offset="0" style="stop-color:#f80040;stop-opacity:1"/><stop offset="1" style="stop-color:#150941;stop-opacity:1"/></linearGradient><linearGradient id="linear4" x1="118.255" x2="118.255" y1="34.938" y2="150.57" gradientTransform="matrix(0.372093,0,0,0.372093,0,0)" gradientUnits="userSpaceOnUse"><stop offset="0" style="stop-color:#f80040;stop-opacity:1"/><stop offset="1" style="stop-color:#150941;stop-opacity:1"/></linearGradient><linearGradient id="linear5" x1="71.219" x2="71.219" y1="34.938" y2="150.57" gradientTransform="matrix(0.372093,0,0,0.372093,0,0)" gradientUnits="userSpaceOnUse"><stop offset="0" style="stop-color:#f80040;stop-opacity:1"/><stop offset="1" style="stop-color:#150941;stop-opacity:1"/></linearGradient></defs><g id="surface16521416"><path style="stroke:none;fill-rule:nonzero;fill:url(#linear0)" d="M 26.5 17 C 24.566406 17 23 18.566406 23 20.5 C 23 22.433594 24.566406 24 26.5 24 C 28.433594 24 30 22.433594 30 20.5 C 30 18.566406 28.433594 17 26.5 17 Z M 26.5 17"/><path style="stroke:none;fill-rule:nonzero;fill:url(#linear1)" d="M 16.875 10.5 L 16.71875 10.5 C 16.3125 10.5 16.109375 10.011719 16.394531 9.726562 L 16.507812 9.613281 C 16.949219 9.171875 16.949219 8.460938 16.507812 8.023438 L 15.976562 7.492188 C 15.539062 7.050781 14.828125 7.050781 14.386719 7.492188 L 14.273438 7.605469 C 13.988281 7.890625 13.5 7.6875 13.5 7.28125 L 13.5 7.125 C 13.5 6.503906 12.996094 6 12.375 6 L 11.625 6 C 11.003906 6 10.5 6.503906 10.5 7.125 L 10.5 7.28125 C 10.5 7.6875 10.011719 7.890625 9.726562 7.605469 L 9.613281 7.492188 C 9.171875 7.050781 8.460938 7.050781 8.023438 7.492188 L 7.492188 8.023438 C 7.050781 8.460938 7.050781 9.171875 7.492188 9.613281 L 7.605469 9.726562 C 7.890625 10.011719 7.6875 10.5 7.28125 10.5 L 7.125 10.5 C 6.503906 10.5 6 11.003906 6 11.625 L 6 12.375 C 6 12.996094 6.503906 13.5 7.125 13.5 L 7.28125 13.5 C 7.6875 13.5 7.890625 13.988281 7.605469 14.273438 L 7.492188 14.386719 C 7.050781 14.828125 7.050781 15.539062 7.492188 15.976562 L 8.027344 16.507812 C 8.460938 16.949219 9.175781 16.949219 9.617188 16.507812 L 9.726562 16.394531 C 10.011719 16.109375 10.5 16.3125 10.5 16.71875 L 10.5 16.875 C 10.5 17.496094 11.003906 18 11.625 18 L 12.375 18 C 12.996094 18 13.5 17.496094 13.5 16.875 L 13.5 16.71875 C 13.5 16.3125 13.988281 16.109375 14.273438 16.394531 L 14.386719 16.507812 C 14.828125 16.949219 15.539062 16.949219 15.976562 16.507812 L 16.507812 15.976562 C 16.949219 15.539062 16.949219 14.828125 16.507812 14.386719 L 16.394531 14.273438 C 16.109375 13.988281 16.3125 13.5 16.71875 13.5 L 16.875 13.5 C 17.496094 13.5 18 12.996094 18 12.375 L 18 11.625 C 18 11.003906 17.496094 10.5 16.875 10.5 Z M 12 14.25 C 10.753906 14.25 9.75 13.246094 9.75 12 C 9.75 10.753906 10.753906 9.75 12 9.75 C 13.246094 9.75 14.25 10.753906 14.25 12 C 14.25 13.246094 13.246094 14.25 12 14.25 Z M 12 14.25"/><path style="stroke:none;fill-rule:nonzero;fill:url(#linear2)" d="M 24 46 L 24 42 L 20.996094 42 C 19.34375 42 18 40.644531 18 38.980469 L 18 35 C 18 34.4375 18.429688 34 18.976562 34 L 21.019531 34 C 21.558594 34 22 34.4375 22 34.980469 L 22 36 L 24 36 L 24 34.980469 C 24 33.335938 22.660156 32 21.019531 32 L 20 32 L 20 30 L 18 30 L 18 32.179688 C 17 32.589844 16 33.691406 16 35 L 16 38.980469 C 16 40.613281 17 42.050781 18 42.96875 L 18 49 L 16.996094 49 C 15.34375 49 14 47.652344 14 46 L 14 28 L 12 28 L 12 46 C 12 48.757812 14.242188 51 16.996094 51 L 18 51 L 18 58 L 20 58 L 20 43.898438 C 20 43.964844 20.65625 44 20.996094 44 L 22 44 L 22 46 C 22 49.859375 25 53 29 53 L 29 51 C 26 51 24 48.757812 24 46 Z M 24 46"/><path style="stroke:none;fill-rule:nonzero;fill:url(#linear3)" d="M 43 36 L 43 31 L 44 31 L 44 29 L 38 29 L 38 31 L 41 31 L 41 36 Z M 43 36"/><path style="stroke:none;fill-rule:nonzero;fill:url(#linear4)" d="M 52.21875 35.78125 L 48 30.640625 L 48 26 C 48 18.832031 42 13 35 13 L 35 15 C 41 15 46 19.933594 46 26 L 46 31.359375 L 50.726562 37.109375 C 51.152344 37.554688 50.964844 38.109375 50.898438 38.265625 C 50.824219 38.4375 50.53125 39 49.828125 39 L 46 39 L 46 45 L 41.996094 45 C 41.445312 45 41 44.550781 41 44 L 41 43 L 39 43 L 39 44 C 39 45.652344 40.34375 47 41.996094 47 L 46 47 L 46 48 C 46 49.652344 44.652344 51 42.996094 51 L 37.996094 51 C 36.34375 51 35 52.347656 35 54 L 35 58 L 37 58 L 37 54 C 37 53.449219 37.445312 53 37.996094 53 L 42.996094 53 C 45.753906 53 48 50.757812 48 48 L 48 41 L 49.828125 41 C 51.109375 41 52.226562 40.253906 52.738281 39.050781 C 53.234375 37.882812 53.015625 36.605469 52.21875 35.78125 Z M 52.21875 35.78125"/><path style="stroke:none;fill-rule:nonzero;fill:url(#linear5)" d="M 35 21.078125 L 35 19.921875 C 35 18.90625 34.289062 18.050781 33.339844 17.824219 C 33.304688 17.734375 33.265625 17.644531 33.226562 17.554688 C 33.742188 16.726562 33.636719 15.617188 32.917969 14.898438 L 32.105469 14.082031 C 31.410156 13.386719 30.257812 13.269531 29.445312 13.773438 C 29.355469 13.734375 29.265625 13.695312 29.175781 13.660156 C 28.949219 12.710938 28.09375 12 27.078125 12 L 25.921875 12 C 24.90625 12 24.050781 12.710938 23.824219 13.660156 C 23.734375 13.695312 23.644531 13.734375 23.554688 13.773438 C 22.742188 13.265625 21.589844 13.386719 20.898438 14.082031 L 20.082031 14.898438 C 19.363281 15.617188 19.261719 16.722656 19.773438 17.554688 C 19.734375 17.644531 19.695312 17.734375 19.660156 17.824219 C 18.710938 18.050781 18 18.90625 18 19.921875 L 18 21.078125 C 18 22.09375 18.710938 22.949219 19.660156 23.175781 C 19.695312 23.265625 19.734375 23.355469 19.773438 23.445312 C 19.257812 24.273438 19.363281 25.382812 20.082031 26.101562 L 20.894531 26.917969 C 21.589844 27.613281 22.742188 27.730469 23.554688 27.226562 C 23.644531 27.265625 23.734375 27.304688 23.824219 27.339844 C 24.050781 28.289062 24.90625 29 25.921875 29 L 27.078125 29 C 28.09375 29 28.949219 28.289062 29.175781 27.339844 C 29.265625 27.304688 29.355469 27.265625 29.445312 27.226562 C 30.261719 27.734375 31.410156 27.613281 32.101562 26.917969 L 32.917969 26.101562 C 33.636719 25.382812 33.738281 24.277344 33.226562 23.445312 C 33.265625 23.355469 33.304688 23.265625 33.339844 23.175781 C 34.289062 22.949219 35 22.09375 35 21.078125 Z M 33 21.078125 C 33 21.160156 32.929688 21.230469 32.847656 21.230469 L 31.84375 21.230469 L 31.640625 21.957031 C 31.523438 22.363281 31.367188 22.75 31.167969 23.105469 L 30.796875 23.765625 L 31.503906 24.472656 C 31.5625 24.53125 31.5625 24.628906 31.503906 24.6875 L 30.6875 25.503906 C 30.613281 25.578125 30.546875 25.578125 30.46875 25.503906 L 29.761719 24.800781 L 29.105469 25.167969 C 28.746094 25.367188 28.363281 25.523438 27.960938 25.640625 L 27.230469 25.847656 L 27.230469 26.847656 C 27.230469 26.929688 27.160156 27 27.078125 27 L 25.921875 27 C 25.839844 27 25.769531 26.929688 25.769531 26.847656 L 25.769531 25.847656 L 25.039062 25.640625 C 24.636719 25.527344 24.253906 25.367188 23.894531 25.167969 L 23.238281 24.800781 L 22.527344 25.503906 C 22.453125 25.578125 22.386719 25.578125 22.3125 25.503906 L 21.496094 24.691406 C 21.4375 24.628906 21.4375 24.53125 21.496094 24.472656 L 22.203125 23.765625 L 21.832031 23.105469 C 21.636719 22.75 21.476562 22.363281 21.359375 21.957031 L 21.15625 21.230469 L 20.152344 21.230469 C 20.070312 21.230469 20 21.160156 20 21.078125 L 20 19.921875 C 20 19.839844 20.070312 19.769531 20.152344 19.769531 L 21.15625 19.769531 L 21.359375 19.042969 C 21.476562 18.636719 21.632812 18.25 21.832031 17.894531 L 22.203125 17.234375 L 21.496094 16.527344 C 21.4375 16.46875 21.4375 16.371094 21.496094 16.3125 L 22.3125 15.496094 C 22.386719 15.421875 22.453125 15.421875 22.53125 15.496094 L 23.238281 16.199219 L 23.894531 15.832031 C 24.253906 15.632812 24.640625 15.476562 25.039062 15.359375 L 25.769531 15.152344 L 25.769531 14.152344 C 25.769531 14.070312 25.839844 14 25.921875 14 L 27.078125 14 C 27.160156 14 27.230469 14.070312 27.230469 14.152344 L 27.230469 15.152344 L 27.960938 15.359375 C 28.359375 15.472656 28.746094 15.632812 29.105469 15.832031 L 29.761719 16.199219 L 30.472656 15.496094 C 30.546875 15.421875 30.613281 15.421875 30.6875 15.496094 L 31.503906 16.308594 C 31.5625 16.371094 31.5625 16.46875 31.503906 16.527344 L 30.796875 17.234375 L 31.167969 17.894531 C 31.363281 18.25 31.523438 18.636719 31.640625 19.042969 L 31.84375 19.769531 L 32.847656 19.769531 C 32.929688 19.769531 33 19.839844 33 19.921875 Z M 33 21.078125"/></g></svg>