<?xml version="1.0" encoding="UTF-8"?>
<svg xmlns="http://www.w3.org/2000/svg" xmlns:xlink="http://www.w3.org/1999/xlink" width="64pt" height="64pt" viewBox="0 0 64 64" version="1.1">
<defs>
<linearGradient id="linear0" gradientUnits="userSpaceOnUse" x1="96.75" y1="20.613131" x2="96.75" y2="26.135941" >
<stop offset="0" style="stop-color:rgb(100%,41.176471%,56.078434%);stop-opacity:1;"/>
<stop offset="1" style="stop-color:rgb(20.784314%,9.019608%,64.313728%);stop-opacity:1;"/>
</linearGradient>
<linearGradient id="linear1" gradientUnits="userSpaceOnUse" x1="38.96875" y1="77.709061" x2="38.96875" y2="82.874443" gradientTransform="matrix(0.372093,0,0,0.372093,0,0)">
<stop offset="0" style="stop-color:rgb(100%,41.176471%,56.078434%);stop-opacity:1;"/>
<stop offset="1" style="stop-color:rgb(20.784314%,9.019608%,64.313728%);stop-opacity:1;"/>
</linearGradient>
<linearGradient id="linear2" gradientUnits="userSpaceOnUse" x1="133.03125" y1="77.709061" x2="133.03125" y2="82.874443" gradientTransform="matrix(0.372093,0,0,0.372093,0,0)">
<stop offset="0" style="stop-color:rgb(100%,41.176471%,56.078434%);stop-opacity:1;"/>
<stop offset="1" style="stop-color:rgb(20.784314%,9.019608%,64.313728%);stop-opacity:1;"/>
</linearGradient>
<linearGradient id="linear3" gradientUnits="userSpaceOnUse" x1="64.5" y1="144.810562" x2="64.5" y2="149.957123" >
<stop offset="0" style="stop-color:rgb(100%,41.176471%,56.078434%);stop-opacity:1;"/>
<stop offset="1" style="stop-color:rgb(20.784314%,9.019608%,64.313728%);stop-opacity:1;"/>
</linearGradient>
<linearGradient id="linear4" gradientUnits="userSpaceOnUse" x1="107.5" y1="144.810562" x2="107.5" y2="149.957123" >
<stop offset="0" style="stop-color:rgb(100%,41.176471%,56.078434%);stop-opacity:1;"/>
<stop offset="1" style="stop-color:rgb(20.784314%,9.019608%,64.313728%);stop-opacity:1;"/>
</linearGradient>
<linearGradient id="linear5" gradientUnits="userSpaceOnUse" x1="72.5625" y1="18.584061" x2="72.5625" y2="142.660553" gradientTransform="matrix(0.372093,0,0,0.372093,0,0)">
<stop offset="0" style="stop-color:rgb(97.254902%,0%,25.098041%);stop-opacity:1;"/>
<stop offset="1" style="stop-color:rgb(8.235294%,3.529412%,25.490198%);stop-opacity:1;"/>
</linearGradient>
<linearGradient id="linear6" gradientUnits="userSpaceOnUse" x1="99.4375" y1="18.584061" x2="99.4375" y2="142.660553" gradientTransform="matrix(0.372093,0,0,0.372093,0,0)">
<stop offset="0" style="stop-color:rgb(97.254902%,0%,25.098041%);stop-opacity:1;"/>
<stop offset="1" style="stop-color:rgb(8.235294%,3.529412%,25.490198%);stop-opacity:1;"/>
</linearGradient>
<linearGradient id="linear7" gradientUnits="userSpaceOnUse" x1="86" y1="18.584061" x2="86" y2="142.660553" gradientTransform="matrix(0.372093,0,0,0.372093,0,0)">
<stop offset="0" style="stop-color:rgb(97.254902%,0%,25.098041%);stop-opacity:1;"/>
<stop offset="1" style="stop-color:rgb(8.235294%,3.529412%,25.490198%);stop-opacity:1;"/>
</linearGradient>
</defs>
<g id="surface25559447">
<path style=" stroke:none;fill-rule:nonzero;fill:url(#linear0);" d="M 32 7 L 40 7 L 40 11 L 32 11 Z M 32 7 "/>
<path style=" stroke:none;fill-rule:nonzero;fill:url(#linear1);" d="M 20 28 L 12.808594 28 C 10.703125 28 9 29.703125 9 31.808594 L 9 32 L 20 32 Z M 20 28 "/>
<path style=" stroke:none;fill-rule:nonzero;fill:url(#linear2);" d="M 44 28 L 51.191406 28 C 53.296875 28 55 29.703125 55 31.808594 L 55 32 L 44 32 Z M 44 28 "/>
<path style=" stroke:none;fill-rule:nonzero;fill:url(#linear3);" d="M 20 53 L 28 53 L 28 57 L 20 57 Z M 20 53 "/>
<path style=" stroke:none;fill-rule:nonzero;fill:url(#linear4);" d="M 36 53 L 44 53 L 44 57 L 36 57 Z M 36 53 "/>
<path style=" stroke:none;fill-rule:nonzero;fill:url(#linear5);" d="M 29 31 L 25 31 C 24.449219 31 24 31.445312 24 32 L 24 38 C 24 38.554688 24.449219 39 25 39 L 29 39 C 29.550781 39 30 38.554688 30 38 L 30 32 C 30 31.445312 29.550781 31 29 31 Z M 28 37 L 26 37 L 26 33 L 28 33 Z M 28 37 "/>
<path style=" stroke:none;fill-rule:nonzero;fill:url(#linear6);" d="M 39 31 L 35 31 C 34.449219 31 34 31.445312 34 32 L 34 38 C 34 38.554688 34.449219 39 35 39 L 39 39 C 39.550781 39 40 38.554688 40 38 L 40 32 C 40 31.445312 39.550781 31 39 31 Z M 38 37 L 36 37 L 36 33 L 38 33 Z M 38 37 "/>
<path style=" stroke:none;fill-rule:nonzero;fill:url(#linear7);" d="M 56 37 L 56 33 L 58 33 L 58 31 L 55.917969 31 C 55.53125 28.734375 53.566406 27 51.191406 27 L 45 27 L 45 24 C 45 23.445312 44.550781 23 44 23 L 41 23 C 41 18.375 37.492188 14.558594 33 14.058594 L 33 12 L 41 12 L 41 6 L 31 6 L 31 14.058594 C 26.507812 14.558594 23 18.375 23 23 L 20 23 C 19.449219 23 19 23.445312 19 24 L 19 27 L 12.808594 27 C 10.433594 27 8.46875 28.734375 8.082031 31 L 6 31 L 6 33 L 8 33 L 8 56 L 6 56 L 6 58 L 58 58 L 58 56 L 56 56 Z M 33 8 L 39 8 L 39 10 L 33 10 Z M 45 29 L 51.191406 29 C 52.460938 29 53.53125 29.84375 53.882812 31 L 45 31 Z M 35 45 L 29 45 L 29 44 C 29 43.449219 29.449219 43 30 43 L 34 43 C 34.550781 43 35 43.449219 35 44 Z M 37 44 C 37 42.347656 35.652344 41 34 41 L 30 41 C 28.347656 41 27 42.347656 27 44 L 27 52 L 21 52 L 21 50 L 23 50 L 23 48 L 21 48 L 21 29 L 43 29 L 43 48 L 41 48 L 41 50 L 43 50 L 43 52 L 37 52 Z M 32 16 C 35.859375 16 39 19.140625 39 23 L 25 23 C 25 19.140625 28.140625 16 32 16 Z M 21 25 L 43 25 L 43 27 L 21 27 Z M 12.808594 29 L 19 29 L 19 31 L 10.117188 31 C 10.46875 29.84375 11.539062 29 12.808594 29 Z M 10 38 L 14 38 L 14 41 L 10 41 Z M 10 48 L 14 48 L 14 51 L 10 51 Z M 10 53 L 15 53 C 15.550781 53 16 52.554688 16 52 L 16 47 C 16 46.445312 15.550781 46 15 46 L 10 46 L 10 43 L 15 43 C 15.550781 43 16 42.554688 16 42 L 16 37 C 16 36.445312 15.550781 36 15 36 L 10 36 L 10 33 L 19 33 L 19 56 L 10 56 Z M 21 54 L 27 54 L 27 56 L 21 56 Z M 29 53 L 29 47 L 35 47 L 35 56 L 29 56 Z M 37 56 L 37 54 L 43 54 L 43 56 Z M 45 56 L 45 33 L 54 33 L 54 36 L 49 36 C 48.449219 36 48 36.445312 48 37 L 48 42 C 48 42.554688 48.449219 43 49 43 L 54 43 L 54 46 L 49 46 C 48.449219 46 48 46.445312 48 47 L 48 52 C 48 52.554688 48.449219 53 49 53 L 54 53 L 54 56 Z M 54 38 L 54 41 L 50 41 L 50 38 Z M 54 48 L 54 51 L 50 51 L 50 48 Z M 54 48 "/>
</g>
</svg>
