<?xml version="1.0" encoding="UTF-8"?>
<svg xmlns="http://www.w3.org/2000/svg" xmlns:xlink="http://www.w3.org/1999/xlink" width="64pt" height="64pt" viewBox="0 0 64 64" version="1.1">
<defs>
<linearGradient id="linear0" gradientUnits="userSpaceOnUse" x1="32.25" y1="126.884941" x2="32.25" y2="135.818192" gradientTransform="matrix(0.372093,0,0,0.372093,0,0)">
<stop offset="0" style="stop-color:rgb(100%,41.176471%,56.078434%);stop-opacity:1;"/>
<stop offset="1" style="stop-color:rgb(20.784314%,9.019608%,64.313728%);stop-opacity:1;"/>
</linearGradient>
<linearGradient id="linear1" gradientUnits="userSpaceOnUse" x1="86" y1="25.44525" x2="86" y2="147.8125" gradientTransform="matrix(0.372093,0,0,0.372093,0,0)">
<stop offset="0" style="stop-color:rgb(97.254902%,0%,25.098041%);stop-opacity:1;"/>
<stop offset="1" style="stop-color:rgb(8.235294%,3.529412%,25.490198%);stop-opacity:1;"/>
</linearGradient>
<linearGradient id="linear2" gradientUnits="userSpaceOnUse" x1="104.8125" y1="25.44525" x2="104.8125" y2="147.8125" >
<stop offset="0" style="stop-color:rgb(97.254902%,0%,25.098041%);stop-opacity:1;"/>
<stop offset="1" style="stop-color:rgb(8.235294%,3.529412%,25.490198%);stop-opacity:1;"/>
</linearGradient>
<linearGradient id="linear3" gradientUnits="userSpaceOnUse" x1="104.8125" y1="25.44525" x2="104.8125" y2="147.8125" >
<stop offset="0" style="stop-color:rgb(97.254902%,0%,25.098041%);stop-opacity:1;"/>
<stop offset="1" style="stop-color:rgb(8.235294%,3.529412%,25.490198%);stop-opacity:1;"/>
</linearGradient>
<linearGradient id="linear4" gradientUnits="userSpaceOnUse" x1="104.8125" y1="25.44525" x2="104.8125" y2="147.8125" >
<stop offset="0" style="stop-color:rgb(97.254902%,0%,25.098041%);stop-opacity:1;"/>
<stop offset="1" style="stop-color:rgb(8.235294%,3.529412%,25.490198%);stop-opacity:1;"/>
</linearGradient>
</defs>
<g id="surface6014587">
<path style=" stroke:none;fill-rule:nonzero;fill:url(#linear0);" d="M 11 51 L 13 51 C 13.550781 51 14 50.550781 14 50 L 14 48 C 14 47.449219 13.550781 47 13 47 L 11 47 C 10.449219 47 10 47.449219 10 48 L 10 50 C 10 50.550781 10.449219 51 11 51 Z M 11 51 "/>
<path style=" stroke:none;fill-rule:nonzero;fill:url(#linear1);" d="M 53.5 46 L 46.238281 46 C 46.71875 45.285156 47 44.425781 47 43.5 C 47 42.089844 46.347656 40.824219 45.324219 40 C 46.347656 39.175781 47 37.910156 47 36.5 C 47 35.089844 46.347656 33.824219 45.324219 33 C 46.347656 32.175781 47 30.910156 47 29.5 C 47 27.019531 44.980469 25 42.5 25 L 33 25 C 32.449219 25 32 24.550781 32 24 L 32 14.5 C 32 11.46875 29.53125 9 26.5 9 C 23.46875 9 21 11.46875 21 14.5 L 21 24 C 21 25.652344 19.652344 27 18 27 L 17.996094 27 C 17.976562 25.34375 16.625 24 14.964844 24 L 9.035156 24 C 7.363281 24 6 25.359375 6 27.035156 L 6 51.964844 C 6 53.640625 7.363281 55 9.035156 55 L 14.964844 55 C 16.042969 55 16.984375 54.429688 17.523438 53.582031 C 18.425781 54.457031 19.648438 55 21 55 L 53.5 55 C 55.980469 55 58 52.980469 58 50.5 C 58 48.019531 55.980469 46 53.5 46 Z M 16 51.964844 C 16 52.535156 15.535156 53 14.964844 53 L 9.035156 53 C 8.464844 53 8 52.535156 8 51.964844 L 8 38 L 12 38 L 12 36 L 8 36 L 8 34 L 12 34 L 12 32 L 8 32 L 8 30 L 12 30 L 12 28 L 8 28 L 8 27.035156 C 8 26.464844 8.464844 26 9.035156 26 L 14.964844 26 C 15.535156 26 16 26.464844 16 27.035156 Z M 53.5 53 L 21 53 C 19.347656 53 18 51.652344 18 50 L 18 29 C 20.757812 29 23 26.757812 23 24 L 23 14.5 C 23 12.570312 24.570312 11 26.5 11 C 28.429688 11 30 12.570312 30 14.5 L 30 24 C 30 25.652344 31.347656 27 33 27 L 42.5 27 C 43.878906 27 45 28.121094 45 29.5 C 45 30.878906 43.878906 32 42.5 32 L 42.5 34 C 43.878906 34 45 35.121094 45 36.5 C 45 37.878906 43.878906 39 42.5 39 L 42.5 41 C 43.878906 41 45 42.121094 45 43.5 C 45 44.878906 43.878906 46 42.5 46 L 41.5 46 L 41.5 48 L 53.5 48 C 54.878906 48 56 49.121094 56 50.5 C 56 51.878906 54.878906 53 53.5 53 Z M 53.5 53 "/>
<path style=" stroke:none;fill-rule:nonzero;fill:url(#linear2);" d="M 38 30 L 40 30 L 40 34 L 38 34 Z M 38 30 "/>
<path style=" stroke:none;fill-rule:nonzero;fill:url(#linear3);" d="M 38 36 L 40 36 L 40 40 L 38 40 Z M 38 36 "/>
<path style=" stroke:none;fill-rule:nonzero;fill:url(#linear4);" d="M 38 42 L 40 42 L 40 46 L 38 46 Z M 38 42 "/>
</g>
</svg>
