<svg xmlns="http://www.w3.org/2000/svg" xmlns:xlink="http://www.w3.org/1999/xlink" width="64pt" height="64pt" version="1.1" viewBox="0 0 64 64"><defs><linearGradient id="linear0" x1="69.875" x2="69.875" y1="13.438" y2="159.24" gradientTransform="matrix(0.372093,0,0,0.372093,0,0)" gradientUnits="userSpaceOnUse"><stop offset="0" style="stop-color:#f80040;stop-opacity:1"/><stop offset="1" style="stop-color:#150941;stop-opacity:1"/></linearGradient><linearGradient id="linear1" x1="112.875" x2="112.875" y1="13.438" y2="159.24" gradientTransform="matrix(0.372093,0,0,0.372093,0,0)" gradientUnits="userSpaceOnUse"><stop offset="0" style="stop-color:#f80040;stop-opacity:1"/><stop offset="1" style="stop-color:#150941;stop-opacity:1"/></linearGradient><linearGradient id="linear2" x1="112.875" x2="112.875" y1="13.438" y2="159.24" gradientTransform="matrix(0.372093,0,0,0.372093,0,0)" gradientUnits="userSpaceOnUse"><stop offset="0" style="stop-color:#f80040;stop-opacity:1"/><stop offset="1" style="stop-color:#150941;stop-opacity:1"/></linearGradient><linearGradient id="linear3" x1="110.188" x2="110.188" y1="13.438" y2="159.24" gradientTransform="matrix(0.372093,0,0,0.372093,0,0)" gradientUnits="userSpaceOnUse"><stop offset="0" style="stop-color:#f80040;stop-opacity:1"/><stop offset="1" style="stop-color:#150941;stop-opacity:1"/></linearGradient><linearGradient id="linear4" x1="107.5" x2="107.5" y1="13.438" y2="159.24" gradientTransform="matrix(0.372093,0,0,0.372093,0,0)" gradientUnits="userSpaceOnUse"><stop offset="0" style="stop-color:#f80040;stop-opacity:1"/><stop offset="1" style="stop-color:#150941;stop-opacity:1"/></linearGradient><linearGradient id="linear5" x1="60.469" x2="60.469" y1="13.438" y2="159.24" gradientTransform="matrix(0.372093,0,0,0.372093,0,0)" gradientUnits="userSpaceOnUse"><stop offset="0" style="stop-color:#f80040;stop-opacity:1"/><stop offset="1" style="stop-color:#150941;stop-opacity:1"/></linearGradient><linearGradient id="linear6" x1="60.469" x2="60.469" y1="13.438" y2="159.24" gradientTransform="matrix(0.372093,0,0,0.372093,0,0)" gradientUnits="userSpaceOnUse"><stop offset="0" style="stop-color:#f80040;stop-opacity:1"/><stop offset="1" style="stop-color:#150941;stop-opacity:1"/></linearGradient><linearGradient id="linear7" x1="60.469" x2="60.469" y1="13.438" y2="159.24" gradientTransform="matrix(0.372093,0,0,0.372093,0,0)" gradientUnits="userSpaceOnUse"><stop offset="0" style="stop-color:#f80040;stop-opacity:1"/><stop offset="1" style="stop-color:#150941;stop-opacity:1"/></linearGradient><linearGradient id="linear8" x1="87.344" x2="87.344" y1="13.438" y2="159.24" gradientTransform="matrix(0.372093,0,0,0.372093,0,0)" gradientUnits="userSpaceOnUse"><stop offset="0" style="stop-color:#f80040;stop-opacity:1"/><stop offset="1" style="stop-color:#150941;stop-opacity:1"/></linearGradient><linearGradient id="linear9" x1="87.344" x2="87.344" y1="13.438" y2="159.24" gradientTransform="matrix(0.372093,0,0,0.372093,0,0)" gradientUnits="userSpaceOnUse"><stop offset="0" style="stop-color:#f80040;stop-opacity:1"/><stop offset="1" style="stop-color:#150941;stop-opacity:1"/></linearGradient><linearGradient id="linear10" x1="87.344" x2="87.344" y1="13.438" y2="159.24" gradientTransform="matrix(0.372093,0,0,0.372093,0,0)" gradientUnits="userSpaceOnUse"><stop offset="0" style="stop-color:#f80040;stop-opacity:1"/><stop offset="1" style="stop-color:#150941;stop-opacity:1"/></linearGradient><linearGradient id="linear11" x1="86" x2="86" y1="13.438" y2="159.24" gradientTransform="matrix(0.372093,0,0,0.372093,0,0)" gradientUnits="userSpaceOnUse"><stop offset="0" style="stop-color:#f80040;stop-opacity:1"/><stop offset="1" style="stop-color:#150941;stop-opacity:1"/></linearGradient><linearGradient id="linear12" x1="115.563" x2="115.563" y1="106.605" y2="135.74" gradientTransform="matrix(0.372093,0,0,0.372093,0,0)" gradientUnits="userSpaceOnUse"><stop offset="0" style="stop-color:#ff698f;stop-opacity:1"/><stop offset="1" style="stop-color:#3517a4;stop-opacity:1"/></linearGradient></defs><g id="surface6011442"><path style="stroke:none;fill-rule:nonzero;fill:url(#linear0)" d="M 33 34 C 33 31.835938 31.988281 29.804688 30.308594 28.488281 C 30.738281 27.753906 31 26.910156 31 26 L 31 24 C 31 21.242188 28.757812 19 26 19 C 23.242188 19 21 21.242188 21 24 L 21 26 C 21 26.910156 21.261719 27.753906 21.6875 28.488281 C 20.011719 29.804688 19 31.839844 19 34 L 19 36 L 33 36 Z M 23 24 C 23 22.347656 24.347656 21 26 21 C 27.652344 21 29 22.347656 29 24 L 29 26 C 29 27.652344 27.652344 29 26 29 C 24.347656 29 23 27.652344 23 26 Z M 21 34 C 21 32.414062 21.761719 30.929688 23.019531 29.992188 C 23.855469 30.617188 24.878906 31 26 31 C 27.121094 31 28.144531 30.617188 28.980469 29.992188 C 30.238281 30.929688 31 32.414062 31 34 Z M 21 34"/><path style="stroke:none;fill-rule:nonzero;fill:url(#linear1)" d="M 37 19 L 47 19 L 47 21 L 37 21 Z M 37 19"/><path style="stroke:none;fill-rule:nonzero;fill:url(#linear2)" d="M 37 23 L 47 23 L 47 25 L 37 25 Z M 37 23"/><path style="stroke:none;fill-rule:nonzero;fill:url(#linear3)" d="M 37 27 L 45 27 L 45 29 L 37 29 Z M 37 27"/><path style="stroke:none;fill-rule:nonzero;fill:url(#linear4)" d="M 37 31 L 43 31 L 43 33 L 37 33 Z M 37 31"/><path style="stroke:none;fill-rule:nonzero;fill:url(#linear5)" d="M 19 40 L 26 40 L 26 42 L 19 42 Z M 19 40"/><path style="stroke:none;fill-rule:nonzero;fill:url(#linear6)" d="M 19 44 L 26 44 L 26 46 L 19 46 Z M 19 44"/><path style="stroke:none;fill-rule:nonzero;fill:url(#linear7)" d="M 19 48 L 26 48 L 26 50 L 19 50 Z M 19 48"/><path style="stroke:none;fill-rule:nonzero;fill:url(#linear8)" d="M 28 40 L 37 40 L 37 42 L 28 42 Z M 28 40"/><path style="stroke:none;fill-rule:nonzero;fill:url(#linear9)" d="M 28 44 L 37 44 L 37 46 L 28 46 Z M 28 44"/><path style="stroke:none;fill-rule:nonzero;fill:url(#linear10)" d="M 28 48 L 37 48 L 37 50 L 28 50 Z M 28 48"/><path style="stroke:none;fill-rule:nonzero;fill:url(#linear11)" d="M 52 12 L 50.816406 12 C 50.402344 10.839844 49.300781 10 48 10 L 36.898438 10 C 36.433594 7.722656 34.414062 6 32 6 C 29.585938 6 27.566406 7.722656 27.101562 10 L 16 10 C 14.699219 10 13.597656 10.839844 13.183594 12 L 12 12 C 10.347656 12 9 13.347656 9 15 L 9 53 C 9 54.652344 10.347656 56 12 56 L 13.183594 56 C 13.597656 57.160156 14.699219 58 16 58 L 48 58 C 49.300781 58 50.402344 57.160156 50.816406 56 L 52 56 C 53.652344 56 55 54.652344 55 53 L 55 15 C 55 13.347656 53.652344 12 52 12 Z M 29 11 C 29 9.347656 30.347656 8 32 8 C 33.652344 8 35 9.347656 35 11 L 35 14 L 29 14 Z M 11 53 L 11 15 C 11 14.449219 11.449219 14 12 14 L 13 14 L 13 54 L 12 54 C 11.449219 54 11 53.550781 11 53 Z M 49 55 C 49 55.550781 48.550781 56 48 56 L 16 56 C 15.449219 56 15 55.550781 15 55 L 15 13 C 15 12.449219 15.449219 12 16 12 L 27 12 L 27 16 L 37 16 L 37 12 L 48 12 C 48.550781 12 49 12.449219 49 13 Z M 53 53 C 53 53.550781 52.550781 54 52 54 L 51 54 L 51 14 L 52 14 C 52.550781 14 53 14.449219 53 15 Z M 53 53"/><path style="stroke:none;fill-rule:nonzero;fill:url(#linear12)" d="M 46 50 L 40 50 C 39.449219 50 39 49.550781 39 49 L 39 41 C 39 40.449219 39.449219 40 40 40 L 46 40 C 46.550781 40 47 40.449219 47 41 L 47 49 C 47 49.550781 46.550781 50 46 50 Z M 46 50"/></g></svg>