<svg xmlns="http://www.w3.org/2000/svg" xmlns:xlink="http://www.w3.org/1999/xlink" width="64pt" height="64pt" version="1.1" viewBox="0 0 64 64"><defs><linearGradient id="linear0" x1="87.341" x2="87.341" y1="18.127" y2="153.988" gradientTransform="matrix(0.372093,0,0,0.372093,0,0)" gradientUnits="userSpaceOnUse"><stop offset="0" style="stop-color:#f80040;stop-opacity:1"/><stop offset="1" style="stop-color:#150941;stop-opacity:1"/></linearGradient><linearGradient id="linear1" x1="60.012" x2="60.012" y1="51.492" y2="85.97" gradientTransform="matrix(0.372093,0,0,0.372093,0,0)" gradientUnits="userSpaceOnUse"><stop offset="0" style="stop-color:#ff698f;stop-opacity:1"/><stop offset="1" style="stop-color:#3517a4;stop-opacity:1"/></linearGradient><linearGradient id="linear2" x1="98.524" x2="98.524" y1="51.492" y2="85.97" gradientTransform="matrix(0.372093,0,0,0.372093,0,0)" gradientUnits="userSpaceOnUse"><stop offset="0" style="stop-color:#ff698f;stop-opacity:1"/><stop offset="1" style="stop-color:#3517a4;stop-opacity:1"/></linearGradient><linearGradient id="linear3" x1="79.281" x2="79.281" y1="51.492" y2="85.97" gradientTransform="matrix(0.372093,0,0,0.372093,0,0)" gradientUnits="userSpaceOnUse"><stop offset="0" style="stop-color:#ff698f;stop-opacity:1"/><stop offset="1" style="stop-color:#3517a4;stop-opacity:1"/></linearGradient></defs><g id="surface6086448"><path style="stroke:none;fill-rule:nonzero;fill:url(#linear0)" d="M 51.097656 34.667969 C 50.429688 33.65625 50.429688 32.34375 51.097656 31.332031 L 55.5 24.660156 C 56.109375 23.734375 56.164062 22.550781 55.636719 21.570312 C 55.117188 20.601562 54.113281 20 53.015625 20 L 45 20 L 45 16 C 45 14.347656 43.652344 13 42 13 L 15.617188 13 C 16.460938 12.265625 17 11.199219 17 10 C 17 7.792969 15.207031 6 13 6 C 10.796875 6 9 7.792969 9 10 C 9 11.414062 9.742188 12.652344 10.855469 13.363281 C 10.339844 13.726562 10 14.324219 10 15 L 10 58 L 12 58 L 12 15 L 14 15 L 14 58 L 16 58 L 16 39 L 24 39 L 29.828125 44.828125 C 30.578125 45.578125 31.597656 46 32.65625 46 L 53.015625 46 C 54.109375 46 55.113281 45.398438 55.636719 44.429688 C 56.164062 43.449219 56.109375 42.265625 55.496094 41.339844 Z M 13 12 C 11.898438 12 11 11.101562 11 10 C 11 8.898438 11.898438 8 13 8 C 14.105469 8 15 8.898438 15 10 C 15 11.101562 14.105469 12 13 12 Z M 16 15 L 42 15 C 42.550781 15 43 15.449219 43 16 L 43 36 C 43 36.550781 42.550781 37 42 37 L 16 37 Z M 53.875 43.480469 C 53.792969 43.636719 53.539062 44 53.015625 44 L 32.980469 44 C 32.4375 44 32 43.550781 32 43 L 32 39 L 42 39 C 43.652344 39 45 37.652344 45 36 L 45 22 L 53.015625 22 C 53.539062 22 53.792969 22.363281 53.875 22.519531 C 54.054688 22.855469 54.039062 23.242188 53.828125 23.558594 L 49.425781 30.230469 C 48.316406 31.914062 48.316406 34.085938 49.425781 35.769531 L 53.828125 42.441406 C 54.039062 42.757812 54.054688 43.144531 53.875 43.480469 Z M 53.875 43.480469"/><path style="stroke:none;fill-rule:nonzero;fill:url(#linear1)" d="M 24.277344 20.269531 L 19.65625 24.558594 C 19.253906 24.933594 19.019531 25.460938 19.019531 26 C 19.019531 26.539062 19.253906 27.066406 19.65625 27.4375 L 24.246094 31.703125 L 25.605469 30.238281 L 21.015625 26.023438 L 25.636719 21.730469 Z M 24.277344 20.269531"/><path style="stroke:none;fill-rule:nonzero;fill:url(#linear2)" d="M 39.335938 24.5625 L 34.710938 20.269531 L 33.351562 21.734375 L 37.972656 25.976562 L 33.382812 30.238281 L 34.742188 31.703125 L 39.335938 27.441406 C 39.738281 27.066406 39.96875 26.539062 39.96875 26 C 39.96875 25.460938 39.738281 24.9375 39.335938 24.5625 Z M 39.335938 24.5625"/><path style="stroke:none;fill-rule:nonzero;fill:url(#linear3)" d="M 26 32.144531 L 27.859375 32.878906 L 33 19.855469 L 31.140625 19.121094 Z M 26 32.144531"/></g></svg>