<?xml version="1.0" encoding="UTF-8"?>
<svg xmlns="http://www.w3.org/2000/svg" xmlns:xlink="http://www.w3.org/1999/xlink" width="64pt" height="64pt" viewBox="0 0 64 64" version="1.1">
<defs>
<linearGradient id="linear0" gradientUnits="userSpaceOnUse" x1="85.986557" y1="18.4685" x2="85.986557" y2="151.330444" gradientTransform="matrix(0.372093,0,0,0.372093,0,0)">
<stop offset="0" style="stop-color:rgb(97.254902%,0%,25.098041%);stop-opacity:1;"/>
<stop offset="1" style="stop-color:rgb(8.235294%,3.529412%,25.490198%);stop-opacity:1;"/>
</linearGradient>
<linearGradient id="linear1" gradientUnits="userSpaceOnUse" x1="90.75956" y1="18.4685" x2="90.75956" y2="151.330444" >
<stop offset="0" style="stop-color:rgb(97.254902%,0%,25.098041%);stop-opacity:1;"/>
<stop offset="1" style="stop-color:rgb(8.235294%,3.529412%,25.490198%);stop-opacity:1;"/>
</linearGradient>
<linearGradient id="linear2" gradientUnits="userSpaceOnUse" x1="90.75956" y1="18.4685" x2="90.75956" y2="151.330444" >
<stop offset="0" style="stop-color:rgb(97.254902%,0%,25.098041%);stop-opacity:1;"/>
<stop offset="1" style="stop-color:rgb(8.235294%,3.529412%,25.490198%);stop-opacity:1;"/>
</linearGradient>
<linearGradient id="linear3" gradientUnits="userSpaceOnUse" x1="91.404556" y1="18.4685" x2="91.404556" y2="151.330444" gradientTransform="matrix(0.372093,0,0,0.372093,0,0)">
<stop offset="0" style="stop-color:rgb(97.254902%,0%,25.098041%);stop-opacity:1;"/>
<stop offset="1" style="stop-color:rgb(8.235294%,3.529412%,25.490198%);stop-opacity:1;"/>
</linearGradient>
<linearGradient id="linear4" gradientUnits="userSpaceOnUse" x1="77.32206" y1="18.4685" x2="77.32206" y2="151.330444" >
<stop offset="0" style="stop-color:rgb(97.254902%,0%,25.098041%);stop-opacity:1;"/>
<stop offset="1" style="stop-color:rgb(8.235294%,3.529412%,25.490198%);stop-opacity:1;"/>
</linearGradient>
</defs>
<g id="surface6007509">
<path style=" stroke:none;fill-rule:nonzero;fill:rgb(45.490196%,72.156864%,94.901961%);fill-opacity:1;" d="M 41.078125 26 L 26.941406 26 C 26.421875 26 26 25.578125 26 25.058594 L 26 18.945312 C 26 18.421875 26.421875 18 26.941406 18 L 41.078125 18 C 41.597656 18 42.019531 18.421875 42.019531 18.941406 L 42.019531 25.054688 C 42.019531 25.578125 41.597656 26 41.078125 26 Z M 41.078125 26 "/>
<path style=" stroke:none;fill-rule:nonzero;fill:url(#linear0);" d="M 48.71875 6 L 19.34375 6 C 16.398438 6 14 8.296875 14 11.117188 L 14 12 L 12.988281 12 C 11.335938 12 9.988281 13.347656 9.988281 15 C 9.988281 16.652344 11.335938 18 12.988281 18 L 14 18 L 14 22 L 12.988281 22 C 11.335938 22 9.988281 23.347656 9.988281 25 C 9.988281 26.652344 11.335938 28 12.988281 28 L 14 28 L 14 32 L 12.988281 32 C 11.335938 32 9.988281 33.347656 9.988281 35 C 9.988281 36.652344 11.335938 38 12.988281 38 L 14 38 L 14 42 L 12.988281 42 C 11.335938 42 9.988281 43.347656 9.988281 45 C 9.988281 46.652344 11.335938 48 12.988281 48 L 14 48 L 14 54 C 14 56.207031 15.792969 58 18 58 L 48 58 C 51.308594 58 54 55.308594 54 52 L 54 11.058594 C 54 8.269531 51.628906 6 48.71875 6 Z M 13.988281 16 L 12.988281 16 C 12.4375 16 11.988281 15.550781 11.988281 15 C 11.988281 14.449219 12.4375 14 12.988281 14 L 13.988281 14 Z M 13.988281 26 L 12.988281 26 C 12.4375 26 11.988281 25.550781 11.988281 25 C 11.988281 24.449219 12.4375 24 12.988281 24 L 13.988281 24 Z M 13.988281 36 L 12.988281 36 C 12.4375 36 11.988281 35.550781 11.988281 35 C 11.988281 34.449219 12.4375 34 12.988281 34 L 13.988281 34 Z M 13.988281 46 L 12.988281 46 C 12.4375 46 11.988281 45.550781 11.988281 45 C 11.988281 44.449219 12.4375 44 12.988281 44 L 13.988281 44 Z M 52 52 C 52 54.207031 50.207031 56 48 56 L 18 56 C 16.898438 56 16 55.101562 16 54 C 16 52.898438 16.898438 52 18 52 L 49 52 C 50.125 52 51.164062 51.628906 52 50.996094 Z M 52 46 L 52 47 C 52 48.652344 50.652344 50 49 50 L 18 50 C 17.269531 50 16.589844 50.210938 16 50.554688 L 16 11.117188 C 16 9.398438 17.5 8 19.34375 8 L 48.71875 8 C 50.527344 8 52 9.371094 52 11.058594 Z M 52 46 "/>
<path style=" stroke:none;fill-rule:nonzero;fill:url(#linear1);" d="M 22.542969 34 L 45 34 L 45 36 L 22.542969 36 Z M 22.542969 34 "/>
<path style=" stroke:none;fill-rule:nonzero;fill:url(#linear2);" d="M 22.542969 38 L 45 38 L 45 40 L 22.542969 40 Z M 22.542969 38 "/>
<path style=" stroke:none;fill-rule:nonzero;fill:url(#linear3);" d="M 43.085938 14 L 24.933594 14 C 23.328125 14 22.019531 15.308594 22.019531 16.914062 L 22.019531 27.085938 C 22.019531 28.691406 23.328125 30 24.933594 30 L 43.085938 30 C 44.691406 30 46 28.691406 46 27.085938 L 46 16.914062 C 46 15.308594 44.691406 14 43.085938 14 Z M 44 27.085938 C 44 27.589844 43.589844 28 43.085938 28 L 24.933594 28 C 24.429688 28 24.019531 27.589844 24.019531 27.085938 L 24.019531 16.914062 C 24.019531 16.410156 24.429688 16 24.933594 16 L 43.085938 16 C 43.589844 16 44 16.410156 44 16.914062 Z M 44 27.085938 "/>
<path style=" stroke:none;fill-rule:nonzero;fill:url(#linear4);" d="M 22.542969 42 L 35 42 L 35 44 L 22.542969 44 Z M 22.542969 42 "/>
</g>
</svg>
