<svg xmlns="http://www.w3.org/2000/svg" xmlns:xlink="http://www.w3.org/1999/xlink" width="64pt" height="64pt" version="1.1" viewBox="0 0 64 64"><defs><linearGradient id="linear0" x1="29.563" x2="29.563" y1="64.836" y2="75.132" gradientTransform="matrix(0.372093,0,0,0.372093,0,0)" gradientUnits="userSpaceOnUse"><stop offset="0" style="stop-color:#ff698f;stop-opacity:1"/><stop offset="1" style="stop-color:#3517a4;stop-opacity:1"/></linearGradient><linearGradient id="linear1" x1="29.563" x2="29.563" y1="81.969" y2="90.733" gradientTransform="matrix(0.372093,0,0,0.372093,0,0)" gradientUnits="userSpaceOnUse"><stop offset="0" style="stop-color:#ff698f;stop-opacity:1"/><stop offset="1" style="stop-color:#3517a4;stop-opacity:1"/></linearGradient><linearGradient id="linear2" x1="29.563" x2="29.563" y1="97.255" y2="106.809" gradientTransform="matrix(0.372093,0,0,0.372093,0,0)" gradientUnits="userSpaceOnUse"><stop offset="0" style="stop-color:#ff698f;stop-opacity:1"/><stop offset="1" style="stop-color:#3517a4;stop-opacity:1"/></linearGradient><linearGradient id="linear3" x1="86" x2="86" y1="20.156" y2="152.338" gradientTransform="matrix(0.372093,0,0,0.372093,0,0)" gradientUnits="userSpaceOnUse"><stop offset="0" style="stop-color:#f80040;stop-opacity:1"/><stop offset="1" style="stop-color:#150941;stop-opacity:1"/></linearGradient><linearGradient id="linear4" x1="75.25" x2="75.25" y1="20.156" y2="152.338" gradientTransform="matrix(0.372093,0,0,0.372093,0,0)" gradientUnits="userSpaceOnUse"><stop offset="0" style="stop-color:#f80040;stop-opacity:1"/><stop offset="1" style="stop-color:#150941;stop-opacity:1"/></linearGradient><linearGradient id="linear5" x1="107.5" x2="107.5" y1="20.156" y2="152.338" gradientTransform="matrix(0.372093,0,0,0.372093,0,0)" gradientUnits="userSpaceOnUse"><stop offset="0" style="stop-color:#f80040;stop-opacity:1"/><stop offset="1" style="stop-color:#150941;stop-opacity:1"/></linearGradient><linearGradient id="linear6" x1="112.875" x2="112.875" y1="20.156" y2="152.338" gradientTransform="matrix(0.372093,0,0,0.372093,0,0)" gradientUnits="userSpaceOnUse"><stop offset="0" style="stop-color:#f80040;stop-opacity:1"/><stop offset="1" style="stop-color:#150941;stop-opacity:1"/></linearGradient><linearGradient id="linear7" x1="91.375" x2="91.375" y1="20.156" y2="152.338" gradientTransform="matrix(0.372093,0,0,0.372093,0,0)" gradientUnits="userSpaceOnUse"><stop offset="0" style="stop-color:#f80040;stop-opacity:1"/><stop offset="1" style="stop-color:#150941;stop-opacity:1"/></linearGradient><linearGradient id="linear8" x1="112.875" x2="112.875" y1="20.156" y2="152.338" gradientTransform="matrix(0.372093,0,0,0.372093,0,0)" gradientUnits="userSpaceOnUse"><stop offset="0" style="stop-color:#f80040;stop-opacity:1"/><stop offset="1" style="stop-color:#150941;stop-opacity:1"/></linearGradient><linearGradient id="linear9" x1="91.375" x2="91.375" y1="20.156" y2="152.338" gradientTransform="matrix(0.372093,0,0,0.372093,0,0)" gradientUnits="userSpaceOnUse"><stop offset="0" style="stop-color:#f80040;stop-opacity:1"/><stop offset="1" style="stop-color:#150941;stop-opacity:1"/></linearGradient><linearGradient id="linear10" x1="75.25" x2="75.25" y1="20.156" y2="152.338" gradientTransform="matrix(0.372093,0,0,0.372093,0,0)" gradientUnits="userSpaceOnUse"><stop offset="0" style="stop-color:#f80040;stop-opacity:1"/><stop offset="1" style="stop-color:#150941;stop-opacity:1"/></linearGradient><linearGradient id="linear11" x1="134.375" x2="134.375" y1="20.156" y2="152.338" gradientTransform="matrix(0.372093,0,0,0.372093,0,0)" gradientUnits="userSpaceOnUse"><stop offset="0" style="stop-color:#f80040;stop-opacity:1"/><stop offset="1" style="stop-color:#150941;stop-opacity:1"/></linearGradient><linearGradient id="linear12" x1="112.875" x2="112.875" y1="20.156" y2="152.338" gradientTransform="matrix(0.372093,0,0,0.372093,0,0)" gradientUnits="userSpaceOnUse"><stop offset="0" style="stop-color:#f80040;stop-opacity:1"/><stop offset="1" style="stop-color:#150941;stop-opacity:1"/></linearGradient></defs><g id="surface6086807"><path style="stroke:none;fill-rule:nonzero;fill:url(#linear0)" d="M 11 24.5 C 10.171875 24.5 9.5 25.171875 9.5 26 C 9.5 26.828125 10.171875 27.5 11 27.5 C 11.828125 27.5 12.5 26.828125 12.5 26 C 12.5 25.171875 11.828125 24.5 11 24.5 Z M 11 24.5"/><path style="stroke:none;fill-rule:nonzero;fill:url(#linear1)" d="M 11 30.5 C 10.171875 30.5 9.5 31.171875 9.5 32 C 9.5 32.828125 10.171875 33.5 11 33.5 C 11.828125 33.5 12.5 32.828125 12.5 32 C 12.5 31.171875 11.828125 30.5 11 30.5 Z M 11 30.5"/><path style="stroke:none;fill-rule:nonzero;fill:url(#linear2)" d="M 11 36.5 C 10.171875 36.5 9.5 37.171875 9.5 38 C 9.5 38.828125 10.171875 39.5 11 39.5 C 11.828125 39.5 12.5 38.828125 12.5 38 C 12.5 37.171875 11.828125 36.5 11 36.5 Z M 11 36.5"/><path style="stroke:none;fill-rule:nonzero;fill:url(#linear3)" d="M 49 36.050781 L 49 16 C 49 14.347656 47.652344 13 46 13 L 30.960938 13 C 30.65625 13 30.371094 12.863281 30.183594 12.625 L 27.382812 9.128906 C 26.8125 8.410156 25.953125 8 25.035156 8 L 9.003906 8 C 7.347656 8 6 9.347656 6 11.003906 L 6 44 C 6 45.652344 7.347656 47 9 47 L 34.050781 47 C 34.554688 52.046875 38.824219 56 44 56 L 48 56 C 53.515625 56 58 51.515625 58 46 C 58 40.824219 54.046875 36.554688 49 36.050781 Z M 39.671875 37 L 35 37 L 35 39 L 36.871094 39 C 35.316406 40.582031 34.28125 42.671875 34.050781 45 L 16 45 L 16 19 L 47 19 L 47 36 L 44 36 C 42.449219 36 40.980469 36.367188 39.671875 37 Z M 25.820312 10.378906 L 27.921875 13 L 21.960938 13 C 21.65625 13 21.371094 12.863281 21.183594 12.625 L 19.082031 10 L 25.035156 10 C 25.34375 10 25.628906 10.136719 25.820312 10.378906 Z M 8 11.003906 C 8 10.449219 8.449219 10 9.003906 10 L 16.035156 10 C 16.34375 10 16.628906 10.136719 16.820312 10.378906 L 19.621094 13.875 C 20.191406 14.589844 21.042969 15 21.960938 15 L 46 15 C 46.550781 15 47 15.449219 47 16 L 47 17 L 8 17 Z M 8 44 L 8 19 L 14 19 L 14 45 L 9 45 C 8.449219 45 8 44.550781 8 44 Z M 48 54 L 44 54 C 39.589844 54 36 50.410156 36 46 C 36 41.589844 39.589844 38 44 38 L 48 38 C 52.410156 38 56 41.589844 56 46 C 56 50.410156 52.410156 54 48 54 Z M 48 54"/><path style="stroke:none;fill-rule:nonzero;fill:url(#linear4)" d="M 23 25 L 33 25 L 33 27 L 23 27 Z M 23 25"/><path style="stroke:none;fill-rule:nonzero;fill:url(#linear5)" d="M 35 25 L 45 25 L 45 27 L 35 27 Z M 35 25"/><path style="stroke:none;fill-rule:nonzero;fill:url(#linear6)" d="M 39 29 L 45 29 L 45 31 L 39 31 Z M 39 29"/><path style="stroke:none;fill-rule:nonzero;fill:url(#linear7)" d="M 31 29 L 37 29 L 37 31 L 31 31 Z M 31 29"/><path style="stroke:none;fill-rule:nonzero;fill:url(#linear8)" d="M 39 33 L 45 33 L 45 35 L 39 35 Z M 39 33"/><path style="stroke:none;fill-rule:nonzero;fill:url(#linear9)" d="M 31 33 L 37 33 L 37 35 L 31 35 Z M 31 33"/><path style="stroke:none;fill-rule:nonzero;fill:url(#linear10)" d="M 23 37 L 33 37 L 33 39 L 23 39 Z M 23 37"/><path style="stroke:none;fill-rule:nonzero;fill:url(#linear11)" d="M 51 44 C 51 42.347656 49.652344 41 48 41 L 47 41 L 47 43 L 48 43 C 48.550781 43 49 43.449219 49 44 C 49 44.769531 49.289062 45.46875 49.765625 46 C 49.289062 46.53125 49 47.230469 49 48 C 49 48.550781 48.550781 49 48 49 L 47 49 L 47 51 L 48 51 C 49.652344 51 51 49.652344 51 48 C 51 47.449219 51.449219 47 52 47 L 53 47 L 53 45 L 52 45 C 51.449219 45 51 44.550781 51 44 Z M 51 44"/><path style="stroke:none;fill-rule:nonzero;fill:url(#linear12)" d="M 41 44 C 41 44.550781 40.550781 45 40 45 L 39 45 L 39 47 L 40 47 C 40.550781 47 41 47.449219 41 48 C 41 49.652344 42.347656 51 44 51 L 45 51 L 45 49 L 44 49 C 43.449219 49 43 48.550781 43 48 C 43 47.230469 42.710938 46.53125 42.234375 46 C 42.710938 45.46875 43 44.769531 43 44 C 43 43.449219 43.449219 43 44 43 L 45 43 L 45 41 L 44 41 C 42.347656 41 41 42.347656 41 44 Z M 41 44"/></g></svg>