<svg xmlns="http://www.w3.org/2000/svg" xmlns:xlink="http://www.w3.org/1999/xlink" width="64pt" height="64pt" version="1.1" viewBox="0 0 64 64"><defs><linearGradient id="linear0" x1="106.1" x2="106.1" y1="112.647" y2="129.301" gradientTransform="matrix(0.372093,0,0,0.372093,0,0)" gradientUnits="userSpaceOnUse"><stop offset="0" style="stop-color:#ff698f;stop-opacity:1"/><stop offset="1" style="stop-color:#3517a4;stop-opacity:1"/></linearGradient><linearGradient id="linear1" x1="86" x2="86" y1="17.899" y2="153.314" gradientTransform="matrix(0.372093,0,0,0.372093,0,0)" gradientUnits="userSpaceOnUse"><stop offset="0" style="stop-color:#f80040;stop-opacity:1"/><stop offset="1" style="stop-color:#150941;stop-opacity:1"/></linearGradient><linearGradient id="linear2" x1="72.563" x2="72.563" y1="17.899" y2="153.314" gradientUnits="userSpaceOnUse"><stop offset="0" style="stop-color:#f80040;stop-opacity:1"/><stop offset="1" style="stop-color:#150941;stop-opacity:1"/></linearGradient><linearGradient id="linear3" x1="65.844" x2="65.844" y1="17.899" y2="153.314" gradientUnits="userSpaceOnUse"><stop offset="0" style="stop-color:#f80040;stop-opacity:1"/><stop offset="1" style="stop-color:#150941;stop-opacity:1"/></linearGradient><linearGradient id="linear4" x1="86" x2="86" y1="17.899" y2="153.314" gradientUnits="userSpaceOnUse"><stop offset="0" style="stop-color:#f80040;stop-opacity:1"/><stop offset="1" style="stop-color:#150941;stop-opacity:1"/></linearGradient><linearGradient id="linear5" x1="65.844" x2="65.844" y1="17.899" y2="153.314" gradientUnits="userSpaceOnUse"><stop offset="0" style="stop-color:#f80040;stop-opacity:1"/><stop offset="1" style="stop-color:#150941;stop-opacity:1"/></linearGradient><linearGradient id="linear6" x1="65.844" x2="65.844" y1="17.899" y2="153.314" gradientUnits="userSpaceOnUse"><stop offset="0" style="stop-color:#f80040;stop-opacity:1"/><stop offset="1" style="stop-color:#150941;stop-opacity:1"/></linearGradient><linearGradient id="linear7" x1="86" x2="86" y1="17.899" y2="153.314" gradientTransform="matrix(0.372093,0,0,0.372093,0,0)" gradientUnits="userSpaceOnUse"><stop offset="0" style="stop-color:#f80040;stop-opacity:1"/><stop offset="1" style="stop-color:#150941;stop-opacity:1"/></linearGradient></defs><g id="surface32734562"><path style="stroke:none;fill-rule:nonzero;fill:url(#linear0)" d="M 46 47 L 46 42.898438 C 46 42.300781 45.601562 41.898438 45 41.898438 L 34 41.898438 C 33.398438 41.898438 33 42.300781 33 42.898438 L 33 47 C 33 47.601562 33.398438 48 34 48 L 45 48 C 45.5 48 46 47.601562 46 47 Z M 46 47"/><path style="stroke:none;fill-rule:nonzero;fill:url(#linear1)" d="M 51.101562 15.699219 L 42.300781 6.898438 C 41.699219 6.300781 41 6 40.199219 6 L 15 6 C 13.300781 6 12 7.300781 12 9 L 12 55 C 12 56.699219 13.300781 58 15 58 L 49 58 C 50.699219 58 52 56.699219 52 55 L 52 17.800781 C 52 17 51.699219 16.300781 51.101562 15.699219 Z M 42 9.398438 L 48.601562 16 L 43 16 C 42.398438 16 42 15.601562 42 15 Z M 50 55 C 50 55.601562 49.601562 56 49 56 L 15 56 C 14.398438 56 14 55.601562 14 55 L 14 53.800781 C 14.300781 53.898438 14.601562 54 15 54 L 49 54 C 49.398438 54 49.699219 53.898438 50 53.800781 Z M 50 51 C 50 51.601562 49.601562 52 49 52 L 15 52 C 14.398438 52 14 51.601562 14 51 L 14 9 C 14 8.398438 14.398438 8 15 8 L 40 8 L 40 15 C 40 16.699219 41.300781 18 43 18 L 50 18 Z M 50 51"/><path style="stroke:none;fill-rule:nonzero;fill:url(#linear2)" d="M 18 12 L 36 12 L 36 14 L 18 14 Z M 18 12"/><path style="stroke:none;fill-rule:nonzero;fill:url(#linear3)" d="M 18 16 L 31 16 L 31 18 L 18 18 Z M 18 16"/><path style="stroke:none;fill-rule:nonzero;fill:url(#linear4)" d="M 18 38 L 46 38 L 46 40 L 18 40 Z M 18 38"/><path style="stroke:none;fill-rule:nonzero;fill:url(#linear5)" d="M 18 42 L 31 42 L 31 44 L 18 44 Z M 18 42"/><path style="stroke:none;fill-rule:nonzero;fill:url(#linear6)" d="M 18 46 L 31 46 L 31 48 L 18 48 Z M 18 46"/><path style="stroke:none;fill-rule:nonzero;fill:url(#linear7)" d="M 40 24 C 40 24.398438 40.101562 24.898438 40.300781 25.300781 L 35.5 29.5 C 35 29.199219 34.5 29 34 29 C 33.5 29 33 29.199219 32.5 29.398438 L 29.800781 27.101562 C 29.898438 26.800781 30 26.398438 30 26 C 30 24.300781 28.699219 23 27 23 C 25.300781 23 24 24.300781 24 26 C 24 26.398438 24.101562 26.699219 24.199219 27.101562 L 21.800781 29.199219 C 21.601562 29.101562 21.300781 29 21 29 C 19.300781 29 18 30.300781 18 32 C 18 33.699219 19.300781 35 21 35 C 22.699219 35 24 33.699219 24 32 C 24 31.398438 23.800781 30.800781 23.5 30.300781 L 25.5 28.601562 C 26 28.800781 26.5 29 27 29 C 27.5 29 28 28.800781 28.5 28.601562 L 31.199219 30.898438 C 31.101562 31.300781 31 31.601562 31 32 C 31 33.699219 32.300781 35 34 35 C 35.699219 35 37 33.699219 37 32 C 37 31.601562 36.898438 31.300781 36.800781 30.898438 L 41.699219 26.699219 C 42.101562 26.898438 42.5 27 43 27 C 44.699219 27 46 25.699219 46 24 C 46 22.300781 44.699219 21 43 21 C 41.300781 21 40 22.300781 40 24 Z M 21 33 C 20.398438 33 20 32.601562 20 32 C 20 31.398438 20.398438 31 21 31 C 21.601562 31 22 31.398438 22 32 C 22 32.601562 21.601562 33 21 33 Z M 27 27 C 26.398438 27 26 26.601562 26 26 C 26 25.398438 26.398438 25 27 25 C 27.601562 25 28 25.398438 28 26 C 28 26.601562 27.601562 27 27 27 Z M 34 33 C 33.398438 33 33 32.601562 33 32 C 33 31.398438 33.398438 31 34 31 C 34.601562 31 35 31.398438 35 32 C 35 32.601562 34.601562 33 34 33 Z M 44 24 C 44 24.601562 43.601562 25 43 25 C 42.398438 25 42 24.601562 42 24 C 42 23.398438 42.398438 23 43 23 C 43.601562 23 44 23.398438 44 24 Z M 44 24"/></g></svg>