<?xml version="1.0" encoding="UTF-8"?>
<svg xmlns="http://www.w3.org/2000/svg" xmlns:xlink="http://www.w3.org/1999/xlink" width="64pt" height="64pt" viewBox="0 0 64 64" version="1.1">
<defs>
<linearGradient id="linear0" gradientUnits="userSpaceOnUse" x1="99.4375" y1="83.145882" x2="99.4375" y2="94.570442" gradientTransform="matrix(0.372093,0,0,0.372093,0,0)">
<stop offset="0" style="stop-color:rgb(100%,41.176471%,56.078434%);stop-opacity:1;"/>
<stop offset="1" style="stop-color:rgb(20.784314%,9.019608%,64.313728%);stop-opacity:1;"/>
</linearGradient>
<linearGradient id="linear1" gradientUnits="userSpaceOnUse" x1="72.5625" y1="83.145882" x2="72.5625" y2="94.570442" gradientTransform="matrix(0.372093,0,0,0.372093,0,0)">
<stop offset="0" style="stop-color:rgb(100%,41.176471%,56.078434%);stop-opacity:1;"/>
<stop offset="1" style="stop-color:rgb(20.784314%,9.019608%,64.313728%);stop-opacity:1;"/>
</linearGradient>
<linearGradient id="linear2" gradientUnits="userSpaceOnUse" x1="86" y1="99.4375" x2="86" y2="111.206062" gradientTransform="matrix(0.372093,0,0,0.372093,0,0)">
<stop offset="0" style="stop-color:rgb(100%,41.176471%,56.078434%);stop-opacity:1;"/>
<stop offset="1" style="stop-color:rgb(20.784314%,9.019608%,64.313728%);stop-opacity:1;"/>
</linearGradient>
<linearGradient id="linear3" gradientUnits="userSpaceOnUse" x1="86" y1="15.45313" x2="86" y2="158.041122" gradientTransform="matrix(0.372093,0,0,0.372093,0,0)">
<stop offset="0" style="stop-color:rgb(97.254902%,0%,25.098041%);stop-opacity:1;"/>
<stop offset="1" style="stop-color:rgb(8.235294%,3.529412%,25.490198%);stop-opacity:1;"/>
</linearGradient>
</defs>
<g id="surface23540632">
<path style=" stroke:none;fill-rule:nonzero;fill:url(#linear0);" d="M 37 31 C 35.894531 31 35 31.894531 35 33 C 35 34.105469 35.894531 35 37 35 C 38.105469 35 39 34.105469 39 33 C 39 31.894531 38.105469 31 37 31 Z M 37 31 "/>
<path style=" stroke:none;fill-rule:nonzero;fill:url(#linear1);" d="M 27 31 C 25.894531 31 25 31.894531 25 33 C 25 34.105469 25.894531 35 27 35 C 28.105469 35 29 34.105469 29 33 C 29 31.894531 28.105469 31 27 31 Z M 27 31 "/>
<path style=" stroke:none;fill-rule:nonzero;fill:url(#linear2);" d="M 34 37 L 30 37 C 29.449219 37 29 37.449219 29 38 C 29 39.65625 30.34375 41 32 41 C 33.65625 41 35 39.65625 35 38 C 35 37.449219 34.550781 37 34 37 Z M 34 37 "/>
<path style=" stroke:none;fill-rule:nonzero;fill:url(#linear3);" d="M 53 56 L 53 54 C 53 47.585938 50.160156 41.679688 45.1875 37.667969 C 45.269531 37.441406 45.355469 37.214844 45.421875 36.980469 C 47.980469 36.765625 50 34.613281 50 32 C 50 31.53125 49.914062 31.085938 49.792969 30.652344 C 51.703125 29.917969 53 28.085938 53 26 C 53 24.359375 52.195312 22.917969 50.976562 22.003906 C 51.625 21.144531 52 20.09375 52 19 C 52 16.242188 49.757812 14 47 14 C 47 11.242188 44.757812 9 42 9 C 41.210938 9 40.445312 9.191406 39.757812 9.539062 C 39.128906 7.496094 37.246094 6 35 6 C 33.914062 6 32.863281 6.363281 32 7.019531 C 31.136719 6.363281 30.085938 6 29 6 C 26.75 6 24.867188 7.503906 24.238281 9.546875 C 23.550781 9.195312 22.785156 9 22 9 C 19.242188 9 17 11.242188 17 14 C 14.242188 14 12 16.242188 12 19 C 12 20.09375 12.375 21.144531 13.023438 22.003906 C 11.804688 22.917969 11 24.359375 11 26 C 11 28.085938 12.296875 29.917969 14.207031 30.652344 C 14.085938 31.085938 14 31.53125 14 32 C 14 34.613281 16.019531 36.765625 18.578125 36.980469 C 18.644531 37.214844 18.730469 37.441406 18.8125 37.667969 C 13.839844 41.675781 11 47.585938 11 54 L 11 56 L 9 56 L 9 58 L 55 58 L 55 56 Z M 34 48 C 34 49.101562 33.101562 50 32 50 C 30.898438 50 30 49.101562 30 48 C 30 47.601562 30.125 47.21875 30.34375 46.890625 C 30.886719 46.953125 31.4375 47 32 47 C 32.5625 47 33.113281 46.957031 33.65625 46.890625 C 33.875 47.21875 34 47.601562 34 48 Z M 28.140625 49 L 24 51.300781 L 24 44.472656 C 25.292969 45.375 26.742188 46.066406 28.300781 46.496094 C 28.105469 46.96875 28 47.476562 28 48 C 28 48.347656 28.058594 48.679688 28.140625 49 Z M 35.699219 46.496094 C 37.257812 46.066406 38.707031 45.375 40 44.472656 L 40 51.300781 L 35.859375 49 C 35.941406 48.679688 36 48.347656 36 48 C 36 47.476562 35.890625 46.96875 35.699219 46.496094 Z M 32 45 C 25.382812 45 20 39.617188 20 33 L 20 28.910156 C 21.976562 28.574219 23.628906 27.277344 24.445312 25.515625 C 25.355469 26.433594 26.613281 27 28 27 C 29.632812 27 31.085938 26.210938 32 24.996094 C 32.914062 26.210938 34.367188 27 36 27 C 37.386719 27 38.644531 26.433594 39.554688 25.515625 C 40.371094 27.277344 42.023438 28.574219 44 28.910156 L 44 33 C 44 39.617188 38.617188 45 32 45 Z M 45.875 34.871094 C 45.957031 34.257812 46 33.632812 46 33 L 46 29.171875 C 47.164062 29.585938 48 30.695312 48 32 C 48 33.351562 47.105469 34.492188 45.875 34.871094 Z M 16 32 C 16 30.695312 16.835938 29.585938 18 29.171875 L 18 33 C 18 33.632812 18.042969 34.257812 18.125 34.871094 C 16.894531 34.492188 16 33.351562 16 32 Z M 15.136719 28.867188 C 13.875 28.488281 13 27.328125 13 26 C 13 24.347656 14.347656 23 16 23 L 16 21 C 15.628906 21 15.269531 21.046875 14.921875 21.125 C 14.339844 20.5625 14 19.816406 14 19 C 14 17.347656 15.347656 16 17 16 L 19 16 L 19 14 C 19 12.347656 20.347656 11 22 11 C 22.742188 11 23.445312 11.300781 24 11.808594 L 24 13 L 26 13 L 26 11 C 26 9.347656 27.347656 8 29 8 C 29.863281 8 30.660156 8.367188 31.246094 9.039062 L 32 9.898438 L 32.753906 9.039062 C 33.339844 8.367188 34.136719 8 35 8 C 36.652344 8 38 9.347656 38 11 L 38 13 L 40 13 L 40 11.785156 C 40.546875 11.292969 41.253906 11 42 11 C 43.652344 11 45 12.347656 45 14 L 45 16 L 47 16 C 48.652344 16 50 17.347656 50 19 C 50 19.816406 49.660156 20.5625 49.078125 21.125 C 48.730469 21.046875 48.371094 21 48 21 L 48 23 C 49.652344 23 51 24.347656 51 26 C 51 27.328125 50.125 28.488281 48.863281 28.867188 C 47.945312 27.738281 46.5625 27 45 27 C 42.792969 27 41 25.207031 41 23 L 41 22 L 39 22 C 39 23.652344 37.652344 25 36 25 C 34.347656 25 33 23.652344 33 22 L 31 22 C 31 23.652344 29.652344 25 28 25 C 26.347656 25 25 23.652344 25 22 L 23 22 L 23 23 C 23 25.207031 21.207031 27 19 27 C 17.4375 27 16.054688 27.738281 15.136719 28.867188 Z M 47 56 L 47 54 L 45 54 L 45 56 L 19 56 L 19 54 L 17 54 L 17 56 L 13 56 L 13 54 C 13 48.375 15.410156 43.179688 19.648438 39.5625 C 20.28125 40.746094 21.070312 41.832031 22 42.78125 L 22 51.300781 C 22 52.015625 22.367188 52.660156 22.984375 53.023438 C 23.300781 53.210938 23.648438 53.304688 24 53.304688 C 24.332031 53.304688 24.664062 53.21875 24.972656 53.050781 L 29.109375 50.75 C 29.839844 51.515625 30.859375 52 32 52 C 33.140625 52 34.160156 51.515625 34.890625 50.75 L 39.027344 53.050781 C 39.335938 53.21875 39.667969 53.304688 40 53.304688 C 40.351562 53.304688 40.699219 53.210938 41.015625 53.023438 C 41.632812 52.660156 42 52.015625 42 51.300781 L 42 42.78125 C 42.929688 41.832031 43.71875 40.746094 44.351562 39.5625 C 48.589844 43.183594 51 48.378906 51 54 L 51 56 Z M 47 56 "/>
</g>
</svg>
